PathFileType	4	(x/y/z)	TRC_MarkerData\Passive\Passive_Pref0004.trc
DataRate	CameraRate	NumFrames	NumMarkers	Units	OrigDataRate	OrigDataStartFrame	OrigNumFrames
240	240	4	49	mm	240	195	259
Frame#	Time	R_AC			L_AC			HEAD			STERN			L_IC			R_IC			L_ASIS			R_ASIS			L_GT			R_GT			L_PSIS			R_PSIS			SACRAL			L_LAT_KNEE			L_MED_KNEE			R_LAT_KNEE			R_MED_KNEE			L_LAT_ANK			L_MED_ANK			R_LAT_ANK			R_MED_ANK			L_THIGH_PROX_POST			L_THIGH_PROX_ANT			L_THIGH_DIST_ANT			L_THIGH_DIST_POST			R_THIGH_PROX_POST			R_THIGH_PROX_ANT			R_THIGH_DIST_ANT			R_THIGH_DIST_POST			L_SHANK_PROX_POST			L_SHANK_PROX_ANT			L_SHANK_DIST_ANT			L_SHANK_DIST_POST			R_SHANK_PROX_POST			R_SHANK_PROX_ANT			R_SHANK_DIST_ANT			R_SHANK_DIST_POST			L_HEEL_LAT			L_HEEL_SUP			L_HEEL_MED			R_HEEL_LAT			R_HEEL_SUP			R_HEEL_MED			L_1ST_MET			L_5TH_MET			L_TOE			R_1ST_MET			R_5TH_MET			R_TOE			
		X1	Y1	Z1	X2	Y2	Z2	X3	Y3	Z3	X4	Y4	Z4	X5	Y5	Z5	X6	Y6	Z6	X7	Y7	Z7	X8	Y8	Z8	X9	Y9	Z9	X10	Y10	Z10	X11	Y11	Z11	X12	Y12	Z12	X13	Y13	Z13	X14	Y14	Z14	X15	Y15	Z15	X16	Y16	Z16	X17	Y17	Z17	X18	Y18	Z18	X19	Y19	Z19	X20	Y20	Z20	X21	Y21	Z21	X22	Y22	Z22	X23	Y23	Z23	X24	Y24	Z24	X25	Y25	Z25	X26	Y26	Z26	X27	Y27	Z27	X28	Y28	Z28	X29	Y29	Z29	X30	Y30	Z30	X31	Y31	Z31	X32	Y32	Z32	X33	Y33	Z33	X34	Y34	Z34	X35	Y35	Z35	X36	Y36	Z36	X37	Y37	Z37	X38	Y38	Z38	X39	Y39	Z39	X40	Y40	Z40	X41	Y41	Z41	X42	Y42	Z42	X43	Y43	Z43	X44	Y44	Z44	X45	Y45	Z45	X46	Y46	Z46	X47	Y47	Z47	X48	Y48	Z48	X49	Y49	Z49	

195	0.81147	375.68	1505.9	442.32	378.64	1516.9	91.1	353.38	1797.9	278.08	412.91	1454.7	264.37	314.47	1077	118.13	358.28	1112.5	441.2	377.35	999.66	139.74	427.25	1019.8	409.2	294.41	909.31	99.108	360.09	949.75	477.16	210.39	1068.1	250.76	223.45	1081	341.87	204.04	1042.4	301.13	426.68	531.37	120.31	446.48	508.22	253.44	375.1	531.2	400.7	352.27	551.98	272.61	111.72	254.71	170.8	135.74	232.36	233.3	272.89	113.46	363	284.96	135.42	274.23	340.63	742.89	120.49	403.04	760.63	118.43	431.49	692.08	125.31	368	672.45	127.45	327.96	730.41	443.72	395.1	742.28	444.41	400.15	668.79	427.44	333.35	657.83	424.69	355.4	482.34	134.1	397.22	454.08	137.26	350.03	419.64	149.35	305.2	453.04	166.45	288.6	376.92	404.03	356.34	368.76	397.59	340.79	294.69	383.3	272.03	306.31	388.47	13.666	256.02	216.2	42.33	269.04	248.27	35.647	234.22	275.31	198.62	49.204	333.37	195.57	78.383	300.39	212.13	52.522	267.72	172.46	102.29	188.38	106.6	144.3	110.72	202.31	79.761	130.28	420.92	55.101	283.59	381.95	44.659	388.59	471.44	52.461	336.16
196	0.81565	381.92	1507.3	442.28	383.77	1517.9	90.987	359.44	1799	277.7	418.62	1456	264.34	319.86	1078.5	118.21	364.05	1113.4	441.22	382.78	1001.2	139.66	432.73	1020.5	409.04	300.61	911.06	98.673	365.23	950.37	477.02	215.98	1069.4	250.9	229.08	1082.2	341.96	209.53	1043.6	301.19	437.4	533.63	120.26	456.18	511.92	253.88	376.43	531.73	400.92	353.82	552.48	272.72	126.94	251.69	169	150.59	230.3	232.03	273.39	114.05	362.98	285.44	135.98	274.25	348.73	744.82	119.79	410.94	763.27	118.16	440.13	694.99	125.18	376.85	674.66	126.84	331	731.49	443.61	398.23	742.75	444.34	402.65	669.16	427.43	335.73	658.83	424.67	366.86	483.42	133.54	409.18	455.92	137.51	362.45	420.76	149.25	316.76	453.49	165.52	289.47	377.6	404.14	357.19	369.3	397.73	341.52	295.27	383.42	272.78	307.03	388.52	28.327	251.62	213.13	56.361	265.42	245.56	50.024	230.72	272.8	198.82	49.961	333.42	195.85	79.111	300.44	212.32	53.204	267.76	190.25	100.5	188.58	124.58	140.71	109.72	221.23	78.035	131	421.08	55.038	283.57	382.06	44.703	388.55	471.61	52.27	336.13
197	0.81983	388.14	1508.6	442.25	388.92	1518.9	90.886	365.49	1800.1	277.3	424.34	1457.3	264.33	325.27	1080	118.28	369.82	1114.2	441.23	388.23	1002.8	139.57	438.2	1021.2	408.86	306.82	912.78	98.216	370.37	950.97	476.85	221.55	1070.6	251	234.7	1083.3	342.02	215.02	1044.8	301.22	447.92	535.93	120.27	465.77	515.52	254.33	377.77	532.28	401.13	355.37	553	272.82	142.28	248.54	167.21	165.6	228.06	230.72	273.9	114.66	362.97	285.92	136.57	274.26	356.8	746.73	119.09	418.8	765.87	117.94	448.69	697.86	125.12	385.65	676.86	126.26	334.07	732.56	443.49	401.38	743.22	444.25	405.17	669.53	427.39	338.14	659.82	424.65	378.19	484.5	133.03	421.02	457.77	137.77	374.78	421.87	149.16	328.26	453.86	164.64	290.35	378.3	404.25	358.04	369.85	397.87	342.26	295.87	383.55	273.53	307.76	388.56	43.173	246.96	210.12	70.564	261.53	242.89	64.615	226.91	270.3	199.03	50.771	333.48	196.17	79.892	300.48	212.53	53.937	267.79	208.24	98.656	188.62	142.72	137.11	108.65	240.31	76.36	131.53	421.24	54.978	283.55	382.17	44.749	388.5	471.78	52.085	336.09
198	0.82401	394.34	1510	442.23	394.08	1519.9	90.795	371.53	1801.2	276.88	430.06	1458.5	264.33	330.71	1081.4	118.32	375.57	1115	441.21	393.69	1004.3	139.46	443.65	1021.8	408.66	313.06	914.48	97.738	375.52	951.54	476.66	227.11	1071.8	251.04	240.31	1084.3	342.04	220.49	1046	301.22	458.24	538.25	120.34	475.24	519.01	254.79	379.12	532.84	401.33	356.95	553.52	272.92	157.75	245.27	165.43	180.77	225.66	229.36	274.43	115.29	362.95	286.43	137.16	274.26	364.83	748.63	118.42	426.62	768.43	117.78	457.19	700.69	125.13	394.37	679.03	125.73	337.18	733.62	443.38	404.57	743.7	444.13	407.72	669.92	427.33	340.6	660.82	424.63	389.37	485.57	132.58	432.73	459.65	138.04	387.03	422.98	149.07	339.69	454.16	163.83	291.24	379.02	404.35	358.91	370.41	398.01	343.01	296.49	383.68	274.29	308.51	388.59	58.209	242.07	207.19	84.944	257.39	240.29	79.431	222.8	267.81	199.25	51.634	333.54	196.54	80.727	300.53	212.74	54.721	267.82	226.41	96.78	188.48	161.01	133.51	107.48	259.55	74.751	131.85	421.41	54.919	283.53	382.28	44.794	388.44	471.95	51.903	336.06
